<svg width="70" height="17" viewBox="0 0 70 17" fill="none" xmlns="http://www.w3.org/2000/svg">
<path d="M12.84 14.52C12.6667 14.7067 12.3933 14.9 12.02 15.1C11.6467 15.2867 11.2133 15.46 10.72 15.62C10.24 15.78 9.74667 15.9067 9.24 16C8.73333 16.1067 8.25333 16.16 7.8 16.16C6.6 16.16 5.52 15.9867 4.56 15.64C3.6 15.28 2.78 14.7867 2.1 14.16C1.42 13.52 0.9 12.7667 0.54 11.9C0.18 11.0333 1.49012e-08 10.0867 1.49012e-08 9.06C1.49012e-08 7.71333 0.2 6.54667 0.6 5.56C1.01333 4.56 1.56667 3.73333 2.26 3.08C2.96667 2.41333 3.77333 1.92 4.68 1.6C5.6 1.28 6.56 1.12 7.56 1.12C8.50667 1.12 9.37333 1.22667 10.16 1.44C10.9467 1.64 11.6133 1.89333 12.16 2.2L11.22 4.9C10.98 4.76667 10.66 4.63333 10.26 4.5C9.86 4.36667 9.45333 4.26 9.04 4.18C8.62667 4.08667 8.26 4.04 7.94 4.04C7.14 4.04 6.43333 4.14 5.82 4.34C5.20667 4.54 4.68667 4.84 4.26 5.24C3.84667 5.64 3.53333 6.14 3.32 6.74C3.10667 7.32667 3 8.01333 3 8.8C3 9.49333 3.12 10.12 3.36 10.68C3.6 11.2267 3.93333 11.6933 4.36 12.08C4.8 12.4667 5.31333 12.76 5.9 12.96C6.5 13.16 7.16 13.26 7.88 13.26C8.29333 13.26 8.67333 13.2333 9.02 13.18C9.36667 13.1133 9.66 13.0133 9.9 12.88V11.1H7.36V8.3H12.84V14.52ZM18.1944 7.26L18.4544 9.66L18.3944 9.3C18.6477 8.78 18.9944 8.34 19.4344 7.98C19.8744 7.60667 20.3077 7.32 20.7344 7.12C21.1744 6.92 21.5077 6.82 21.7344 6.82L21.5944 9.62C20.941 9.54 20.381 9.64667 19.9144 9.94C19.4477 10.2333 19.0877 10.62 18.8344 11.1C18.581 11.58 18.4544 12.0733 18.4544 12.58V16H15.6744V7.26H18.1944ZM23.8775 7.26H26.6775V16H23.8775V7.26ZM23.8175 4.16C23.8175 3.74667 23.9775 3.40667 24.2975 3.14C24.6308 2.87333 24.9842 2.74 25.3575 2.74C25.7308 2.74 26.0708 2.87333 26.3775 3.14C26.6975 3.40667 26.8575 3.74667 26.8575 4.16C26.8575 4.57333 26.6975 4.91333 26.3775 5.18C26.0708 5.43333 25.7308 5.56 25.3575 5.56C24.9842 5.56 24.6308 5.43333 24.2975 5.18C23.9775 4.91333 23.8175 4.57333 23.8175 4.16ZM33.1211 16.24C32.3078 16.24 31.5811 16.0533 30.9411 15.68C30.3011 15.2933 29.7944 14.74 29.4211 14.02C29.0611 13.3 28.8811 12.4467 28.8811 11.46C28.8811 10.4733 29.0811 9.63333 29.4811 8.94C29.8811 8.24667 30.4278 7.72 31.1211 7.36C31.8144 7 32.6011 6.82 33.4811 6.82C34.0411 6.82 34.5744 6.90667 35.0811 7.08C35.6011 7.25333 36.0344 7.52 36.3811 7.88V8.76V0.219999H39.1611V16H36.3611V14.3L36.5811 14.9C36.1278 15.2733 35.6211 15.5933 35.0611 15.86C34.5011 16.1133 33.8544 16.24 33.1211 16.24ZM34.0411 13.88C34.4144 13.88 34.7411 13.8333 35.0211 13.74C35.3144 13.6333 35.5678 13.4867 35.7811 13.3C36.0078 13.1 36.2011 12.8533 36.3611 12.56V10.42C36.2544 10.1267 36.0878 9.88 35.8611 9.68C35.6478 9.46667 35.3811 9.30667 35.0611 9.2C34.7544 9.08 34.4144 9.02 34.0411 9.02C33.6278 9.02 33.2411 9.12667 32.8811 9.34C32.5344 9.54 32.2544 9.82 32.0411 10.18C31.8278 10.54 31.7211 10.9533 31.7211 11.42C31.7211 11.8867 31.8278 12.3067 32.0411 12.68C32.2544 13.0533 32.5344 13.3467 32.8811 13.56C33.2411 13.7733 33.6278 13.88 34.0411 13.88ZM45.6016 16.24C44.7882 16.24 44.0616 16.0533 43.4216 15.68C42.7816 15.2933 42.2749 14.74 41.9016 14.02C41.5416 13.3 41.3616 12.4467 41.3616 11.46C41.3616 10.4733 41.5616 9.63333 41.9616 8.94C42.3616 8.24667 42.9082 7.72 43.6016 7.36C44.2949 7 45.0816 6.82 45.9616 6.82C46.5216 6.82 47.0549 6.90667 47.5616 7.08C48.0816 7.25333 48.5149 7.52 48.8616 7.88V8.76V0.219999H51.6416V16H48.8416V14.3L49.0616 14.9C48.6082 15.2733 48.1016 15.5933 47.5416 15.86C46.9816 16.1133 46.3349 16.24 45.6016 16.24ZM46.5216 13.88C46.8949 13.88 47.2216 13.8333 47.5016 13.74C47.7949 13.6333 48.0482 13.4867 48.2616 13.3C48.4882 13.1 48.6816 12.8533 48.8416 12.56V10.42C48.7349 10.1267 48.5682 9.88 48.3416 9.68C48.1282 9.46667 47.8616 9.30667 47.5416 9.2C47.2349 9.08 46.8949 9.02 46.5216 9.02C46.1082 9.02 45.7216 9.12667 45.3616 9.34C45.0149 9.54 44.7349 9.82 44.5216 10.18C44.3082 10.54 44.2016 10.9533 44.2016 11.42C44.2016 11.8867 44.3082 12.3067 44.5216 12.68C44.7349 13.0533 45.0149 13.3467 45.3616 13.56C45.7216 13.7733 46.1082 13.88 46.5216 13.88ZM54.522 0.219999H57.322V16H54.522V0.219999ZM64.5056 16.24C63.439 16.24 62.5323 16.04 61.7856 15.64C61.0523 15.24 60.4923 14.6867 60.1056 13.98C59.719 13.2733 59.5256 12.46 59.5256 11.54C59.5256 10.66 59.7523 9.86667 60.2056 9.16C60.659 8.45333 61.2656 7.89333 62.0256 7.48C62.7856 7.05333 63.6323 6.84 64.5656 6.84C65.819 6.84 66.8456 7.20667 67.6456 7.94C68.459 8.66 68.9856 9.70667 69.2256 11.08L62.4256 13.24L61.8056 11.72L66.7256 10.06L66.1456 10.32C66.039 9.97333 65.8456 9.67333 65.5656 9.42C65.299 9.15333 64.8923 9.02 64.3456 9.02C63.9323 9.02 63.5656 9.12 63.2456 9.32C62.939 9.50667 62.699 9.78 62.5256 10.14C62.3656 10.4867 62.2856 10.9 62.2856 11.38C62.2856 11.9267 62.3856 12.3867 62.5856 12.76C62.7856 13.12 63.059 13.3933 63.4056 13.58C63.7523 13.7667 64.139 13.86 64.5656 13.86C64.8723 13.86 65.1656 13.8067 65.4456 13.7C65.739 13.5933 66.0256 13.4533 66.3056 13.28L67.5456 15.36C67.079 15.6267 66.5723 15.84 66.0256 16C65.4923 16.16 64.9856 16.24 64.5056 16.24Z" fill="white"/>
</svg>
